<svg width="21" height="23" viewBox="0 0 21 23" fill="none" xmlns="http://www.w3.org/2000/svg">
<path d="M19.068 8.26919C17.1853 8.6101 14.1123 8.70259 12.0733 4.44787C9.88522 -0.123971 6.35063 -0.264033 4.28277 0.153511C3.27769 0.356997 2.52509 1.28194 2.52509 2.17781V13.544C3.11899 13.7924 3.75618 13.5334 3.91969 13.4964C3.96297 13.4859 3.99904 13.4779 4.04713 13.4674C5.36238 13.1502 6.74977 12.9996 10.1906 14.8151C14.5042 17.0878 18.2793 12.9018 19.7436 9.98694C19.8494 9.78345 20.2005 8.81887 20.2005 7.89393C19.6883 8.12649 19.068 8.26919 19.068 8.26919Z" fill="#838383"/>
<path d="M1.35271 0H0.450903C0.20355 0 0 0.185408 0 0.410714V22.5893C0 22.8146 0.20355 23 0.450903 23H1.35271C1.60006 23 1.80361 22.8146 1.80361 22.5893V0.410714C1.80361 0.185408 1.60006 0 1.35271 0Z" fill="#838383"/>
</svg>
