<svg width="48" height="48" viewBox="0 0 48 48" fill="none" xmlns="http://www.w3.org/2000/svg">
<path d="M19.332 4L18.3516 9.04688C16.7032 9.66851 15.1896 10.5399 13.8633 11.6289L9.01562 9.95703L4.34375 18.043L8.22656 21.418C8.0773 22.3344 8 23.1837 8 24C8 24.8175 8.07961 25.6653 8.22656 26.582V26.5859L4.34375 29.9609L9.01562 38.043L13.8594 36.375C15.1858 37.4646 16.7029 38.3311 18.3516 38.9531L19.332 44H28.668L29.6484 38.9531C31.2978 38.3311 32.8098 37.4611 34.1367 36.3711L38.9844 38.043L43.6523 29.9609L39.7734 26.582C39.9227 25.6656 40 24.8163 40 24C40 23.1849 39.9223 22.3367 39.7734 21.4219V21.418L43.6562 18.0391L38.9844 9.95703L34.1406 11.625C32.8142 10.5354 31.2971 9.66887 29.6484 9.04688L28.668 4H19.332ZM22.6289 8H25.3711L26.1484 12L28.2344 12.7891C29.4917 13.2629 30.6213 13.9135 31.6016 14.7188L33.3281 16.1328L37.1719 14.8125L38.543 17.1836L35.4727 19.8555L35.8242 22.0547V22.0586C35.9465 22.8085 36 23.4375 36 24C36 24.5625 35.9465 25.1914 35.8242 25.9414L35.4688 28.1406L38.5391 30.8125L37.168 33.1875L33.3281 31.8633L31.5977 33.2812C30.6174 34.0865 29.4917 34.7371 28.2344 35.2109H28.2305L26.1445 36L25.3672 40H22.6289L21.8516 36L19.7656 35.2109C18.5083 34.7371 17.3787 34.0865 16.3984 33.2812L14.6719 31.8672L10.8281 33.1875L9.45703 30.8164L12.5312 28.1406L12.1758 25.9492V25.9453C12.0552 25.1922 12 24.5613 12 24C12 23.4375 12.0535 22.8086 12.1758 22.0586L12.5312 19.8594L9.45703 17.1875L10.8281 14.8125L14.6719 16.1367L16.3984 14.7188C17.3787 13.9135 18.5083 13.2629 19.7656 12.7891L21.8516 12L22.6289 8ZM24 16C19.607 16 16 19.607 16 24C16 28.393 19.607 32 24 32C28.393 32 32 28.393 32 24C32 19.607 28.393 16 24 16ZM24 20C26.223 20 28 21.777 28 24C28 26.223 26.223 28 24 28C21.777 28 20 26.223 20 24C20 21.777 21.777 20 24 20Z" fill="#AD9DDD" fill-opacity="0.92"/>
</svg>
